<svg width="512" height="512" viewBox="0 0 135.4667 135.4667" xmlns="http://www.w3.org/2000/svg">
  <g stroke="#404040" stroke-linecap="round" stroke-linejoin="round" stroke-width="4.2519">
    <path fill="#fcf4b0" d="M-55.3501 77.7942H7.5257V140.67H-55.35z" style="mix-blend-mode:multiply" transform="scale(1.4205 1.06704) rotate(-45 -24.7753 7.624)"/>
    <path fill="#fae966" d="M-44.4723 66.9164h62.8758v62.8758h-62.8758z" transform="scale(1.4205 1.06704) rotate(-45 -24.7753 7.624)"/>
    <path fill="#f7df1c" d="M-33.5945 56.0385h62.8758v62.876h-62.8758z" transform="scale(1.4205 1.06704) rotate(-45 -24.7753 7.624)"/>
  </g>
  <g aria-label="jest-setup" style="line-height:1.25;-inkscape-font-specification:'Arial, Normal';font-variant-ligatures:none" font-size="19.8438" font-family="Arial" fill="#404040" stroke-width=".2646">
    <path d="M26.8491 41.7126v-2.0251h1.744v2.025zM24.6399 57.884l.3295-1.4825q.5232.1357.8236.1357.5329 0 .7945-.3585.2616-.3488.2616-1.7635V43.602h1.744v10.852q0 1.8992-.494 2.6453-.6299.969-2.093.969-.7073 0-1.3662-.1842zM38.3213 50.5783l1.8022.2229q-.4263 1.5794-1.5794 2.4514-1.153.872-2.9455.872-2.2576 0-3.585-1.3855-1.3178-1.3953-1.3178-3.9048 0-2.5968 1.3371-4.0308 1.3371-1.434 3.4688-1.434 2.0638 0 3.3719 1.405 1.308 1.4049 1.308 3.9532 0 .155-.0097.465h-7.674q.097 1.6957.9593 2.5968.8624.9011 2.151.9011.9593 0 1.6376-.5038.6782-.5039 1.0755-1.6085zm-5.7264-2.8196h5.7458q-.1163-1.2983-.659-1.9475-.8332-1.0077-2.1606-1.0077-1.2015 0-2.0251.8042-.814.8042-.9011 2.151zM41.6254 50.8206l1.7247-.2713q.1453 1.0367.8042 1.589.6685.5523 1.8603.5523 1.2015 0 1.7829-.4845.5813-.4941.5813-1.153 0-.591-.5135-.9302-.3585-.2325-1.7828-.591-1.9185-.4845-2.6646-.8333-.7364-.3585-1.124-.9786-.3779-.6298-.3779-1.3856 0-.688.3101-1.2693.3198-.591.8624-.9786.407-.3004 1.1045-.5039.7074-.2131 1.5116-.2131 1.2112 0 2.122.3488.9204.3488 1.3565.9495.436.591.6007 1.589l-1.7053.2326q-.1163-.7945-.6783-1.2402-.5523-.4457-1.5697-.4457-1.2014 0-1.715.3972-.5135.3973-.5135.9302 0 .3391.2132.6104.2131.281.6685.4651.2616.097 1.5406.4457 1.8507.4942 2.5774.814.7364.31 1.153.9108.4167.6007.4167 1.4921 0 .872-.5136 1.6472-.5038.7655-1.463 1.1918-.9593.4166-2.1705.4166-2.0057 0-3.0618-.8332-1.0465-.8333-1.3371-2.4708zM56.0528 52.3321l.252 1.5406q-.7365.155-1.3178.155-.9496 0-1.4728-.3003-.5232-.3004-.7364-.7849-.2132-.4941-.2132-2.0638v-5.9202h-1.279V43.602h1.279v-2.5483l1.7344-1.0465v3.5948h1.7538v1.3565H54.299v6.0171q0 .746.0872.9592.097.2132.3004.3392.2132.126.6007.126.2907 0 .7655-.0679zM57.0702 49.6288V47.875h5.3582v1.7538zM63.6783 50.8206l1.7247-.2713q.1454 1.0367.8043 1.589.6685.5523 1.8603.5523 1.2015 0 1.7829-.4845.5813-.4941.5813-1.153 0-.591-.5135-.9302-.3585-.2325-1.7829-.591-1.9185-.4845-2.6645-.8333-.7364-.3585-1.124-.9786-.3779-.6298-.3779-1.3856 0-.688.31-1.2693.3198-.591.8624-.9786.407-.3004 1.1046-.5039.7073-.2131 1.5116-.2131 1.2111 0 2.122.3488.9204.3488 1.3564.9495.436.591.6008 1.589l-1.7054.2326q-.1162-.7945-.6782-1.2402-.5523-.4457-1.5697-.4457-1.2015 0-1.715.3972-.5135.3973-.5135.9302 0 .3391.2131.6104.2132.281.6686.4651.2616.097 1.5406.4457 1.8507.4942 2.5774.814.7364.31 1.153.9108.4166.6007.4166 1.4921 0 .872-.5135 1.6472-.5038.7655-1.463 1.1918-.9593.4166-2.1705.4166-2.0057 0-3.0618-.8332-1.0465-.8333-1.3372-2.4708zM81.342 50.5783l1.8022.2229q-.4263 1.5794-1.5793 2.4514-1.153.872-2.9456.872-2.2576 0-3.585-1.3855-1.3178-1.3953-1.3178-3.9048 0-2.5968 1.3371-4.0308 1.3372-1.434 3.4688-1.434 2.0639 0 3.372 1.405 1.308 1.4049 1.308 3.9532 0 .155-.0097.465h-7.674q.097 1.6957.9593 2.5968.8623.9011 2.151.9011.9592 0 1.6375-.5038.6783-.5039 1.0755-1.6085zm-5.7264-2.8196h5.7458q-.1163-1.2983-.6589-1.9475-.8333-1.0077-2.1607-1.0077-1.2015 0-2.025.8042-.814.8042-.9012 2.151zM89.1516 52.3321l.252 1.5406q-.7364.155-1.3178.155-.9495 0-1.4728-.3003-.5232-.3004-.7364-.7849-.2131-.4941-.2131-2.0638v-5.9202h-1.279V43.602h1.279v-2.5483l1.7344-1.0465v3.5948h1.7537v1.3565H87.398v6.0171q0 .746.0872.9592.0969.2132.3003.3392.2132.126.6008.126.2907 0 .7654-.0679zM97.591 53.892v-1.5114q-1.2014 1.744-3.2652 1.744-.9108 0-1.7054-.3488-.7848-.3488-1.1724-.872-.3779-.533-.5329-1.2984-.1066-.5135-.1066-1.6278V43.602h1.7441v5.707q0 1.3662.1066 1.841.1647.688.6976 1.0852.533.3876 1.3178.3876t1.4728-.3973q.688-.407.9689-1.0949.2907-.6976.2907-2.0154V43.602h1.744v10.29zM101.8932 57.8357V43.602h1.589v1.3371q.562-.7848 1.2693-1.1724.7073-.3972 1.715-.3972 1.3178 0 2.3255.6782 1.0077.6783 1.5212 1.9185.5135 1.2305.5135 2.7033 0 1.5794-.5716 2.8487-.562 1.2596-1.6472 1.9379-1.0755.6685-2.2673.6685-.872 0-1.5697-.3682-.688-.3682-1.1337-.9301v5.0094zm1.5793-9.0305q0 1.9863.8042 2.9359.8042.9495 1.9476.9495 1.1627 0 1.9863-.9786.8333-.9883.8333-3.0522 0-1.9669-.814-2.9455-.8041-.9786-1.928-.9786-1.1144 0-1.9767 1.0464-.8527 1.0368-.8527 3.023z"/>
  </g>
</svg>
