<svg width="512" height="512" viewBox="0 0 135.467 135.467" xmlns="http://www.w3.org/2000/svg">
  <path fill="#f7df1e" stroke="#404040" stroke-opacity=".271" stroke-width="8.466872" d="m12.802 89.937.388-45.346 32.34-31.79 45.345.39 31.79 32.338-.389 45.346-32.339 31.79-45.346-.389z"/>
  <path style="-inkscape-stroke:none" fill="#606060" fill-rule="evenodd" d="m45.652 12.752-.246.1 44.408 109.863.247-.1z" color="#000"/>
  <path style="-inkscape-stroke:none" fill="#606060" fill-rule="evenodd" d="m45.396 12.8-.937 109.475.266.002.937-109.474zm45.346.39-.937 109.474.265.002.938-109.475z" color="#000"/>
  <path style="-inkscape-stroke:none" fill="#606060" fill-rule="evenodd" d="M-.682 67.6v.267h135.467V67.6z" color="#000"/>
  <path style="-inkscape-stroke:none" fill="#606060" fill-rule="evenodd" d="m131.934 66.55 3.205 1.179-3.205 1.178a2.005 2.005 0 0 0 0-2.357zm-17.026-46.68-95.79 95.788.189.188 95.789-95.79z" color="#000"/>
  <path style="-inkscape-stroke:none" fill="#606060" fill-rule="evenodd" d="m112.149 21.142 3.1-1.433-1.433 3.1a2.005 2.005 0 0 0-1.667-1.667z" color="#000"/>
  <g fill="#606060" fill-rule="evenodd" color="#000">
    <path style="-inkscape-stroke:none" d="M59.162.172v135.467h.268V.172Z"/>
    <path style="-inkscape-stroke:none" d="M58.113 3.024 59.29-.182l1.18 3.206a2.005 2.005 0 0 0-2.358 0z"/>
  </g>
  <path fill="none" stroke="#404040" stroke-width="8.466872" d="m12.802 89.937.388-45.346 32.34-31.79 45.345.39 31.79 32.338-.389 45.346-32.339 31.79-45.346-.389z"/>
  <g aria-label="(?:)" style="line-height:66.1391px;-inkscape-font-specification:'Arial, Normal';font-variant-ligatures:none" font-size="52.917" font-family="Arial Rounded MT Bold" fill="#404040" stroke="#404040" stroke-width=".265">
    <path d="M82.94 82.074q-1.603 0-2.766-1.034-1.162-1.034-1.162-2.894 0-1.576 1.11-2.713 1.112-1.137 2.74-1.137 1.627 0 2.764 1.137 1.163 1.111 1.163 2.713 0 1.835-1.163 2.894-1.137 1.034-2.687 1.034zm-3.928-24.831q0-1.835 1.137-2.842 1.162-1.008 2.79-1.008 1.576 0 2.713 1.034 1.137 1.007 1.137 2.816 0 1.447-1.24 2.661-1.24 1.215-2.687 1.215-1.577 0-2.713-1.163-1.137-1.163-1.137-2.713zM106.607 67.746q0 5.685-1.525 10.568-1.498 4.884-4.573 9.948-1.731 2.842-2.739 3.565-1.007.724-2.739.724-1.291 0-1.291-.698 0-.232 1.085-2.506 1.085-2.248 2.248-5.374 1.188-3.127 2.04-7.338.88-4.238.88-8.889 0-4.676-.88-8.914-.878-4.237-2.04-7.338-1.163-3.1-2.248-5.374-1.085-2.3-1.085-2.507 0-.697 1.291-.697 1.81 0 2.791.697.982.672 2.687 3.54 1.525 2.532 2.661 4.987 1.137 2.455 1.887 4.91.775 2.454 1.162 5.115.388 2.662.388 5.581zM46.559 58.974q0-2.454 1.576-4.96 1.576-2.533 4.6-4.187 3.022-1.653 7.053-1.653 3.747 0 6.615 1.395 2.868 1.37 4.418 3.747 1.576 2.377 1.576 5.167 0 2.196-.904 3.85-.879 1.654-2.119 2.868-1.214 1.189-4.392 4.03-.879.802-1.422 1.422-.516.594-.775 1.111-.258.491-.413 1.008-.13.49-.414 1.757-.49 2.687-3.074 2.687-1.344 0-2.274-.879-.904-.878-.904-2.61 0-2.17.671-3.746.672-1.602 1.783-2.79 1.111-1.215 2.998-2.868 1.653-1.447 2.377-2.17.749-.75 1.24-1.654.517-.905.517-1.964 0-2.067-1.55-3.488-1.525-1.421-3.954-1.421-2.842 0-4.186 1.447-1.343 1.42-2.273 4.211-.879 2.92-3.334 2.92-1.447 0-2.454-1.008-.982-1.033-.982-2.222Zm12.609 28.319q-1.576 0-2.765-1.008-1.162-1.033-1.162-2.868 0-1.628 1.136-2.739 1.137-1.11 2.791-1.11 1.628 0 2.739 1.11 1.11 1.111 1.11 2.74 0 1.808-1.162 2.841-1.163 1.034-2.687 1.034zM28.86 67.746q0-3.901.672-7.286.671-3.41 2.04-6.692 1.37-3.308 3.386-6.615 1.214-2.015 2.04-2.894.828-.904 1.551-1.11.75-.233 1.912-.233 1.266 0 1.266.697 0 .233-1.188 2.817-1.189 2.558-2.248 5.374-1.034 2.816-1.938 7.028-.879 4.212-.879 8.914 0 4.651.879 8.811.878 4.16 1.99 7.209 1.136 3.049 2.247 5.452 1.137 2.429 1.137 2.635 0 .698-1.266.698-1.188 0-1.938-.258Q37.8 92.06 37 91.156q-.801-.905-2.041-2.894-2.042-3.41-3.385-6.589-1.318-3.152-2.016-6.563-.697-3.41-.697-7.364z" style="-inkscape-font-specification:'Arial Rounded MT Bold, '"/>
  </g>
</svg>
